<svg xmlns="http://www.w3.org/2000/svg" xmlns:xlink="http://www.w3.org/1999/xlink" version="1.1" width="256" height="256" fill="#43D7C8" viewBox="0 0 256 256" xml:space="preserve">

<defs>
</defs>
<g style="stroke: none; stroke-width: 0; stroke-dasharray: none; stroke-linecap: butt; stroke-linejoin: miter; stroke-miterlimit: 10; fill: #43D7C8; fill-rule: nonzero; opacity: 1;" transform="translate(1.4065934065934016 1.4065934065934016) scale(2.81 2.81)" >
	<path d="M 72.176 61.871 c -4.685 0 -8.496 -3.812 -8.496 -8.497 c 0 -4.685 3.812 -8.496 8.496 -8.496 s 8.496 3.812 8.496 8.496 C 80.672 58.06 76.86 61.871 72.176 61.871 z M 72.176 47.878 c -3.03 0 -5.496 2.466 -5.496 5.496 c 0 3.031 2.466 5.497 5.496 5.497 s 5.496 -2.466 5.496 -5.497 C 77.672 50.344 75.206 47.878 72.176 47.878 z" style="stroke: none; stroke-width: 1; stroke-dasharray: none; stroke-linecap: butt; stroke-linejoin: miter; stroke-miterlimit: 10; fill: rgb(0,0,0); fill-rule: nonzero; opacity: 1;" transform=" matrix(1 0 0 1 0 0) " stroke-linecap="round" />
	<path d="M 17.813 61.871 c -4.685 0 -8.496 -3.812 -8.496 -8.497 c 0 -4.685 3.812 -8.496 8.496 -8.496 c 4.685 0 8.497 3.812 8.497 8.496 C 26.31 58.06 22.499 61.871 17.813 61.871 z M 17.813 47.878 c -3.031 0 -5.496 2.466 -5.496 5.496 c 0 3.031 2.465 5.497 5.496 5.497 s 5.497 -2.466 5.497 -5.497 C 23.31 50.344 20.844 47.878 17.813 47.878 z" style="stroke: none; stroke-width: 1; stroke-dasharray: none; stroke-linecap: butt; stroke-linejoin: miter; stroke-miterlimit: 10; fill: rgb(0,0,0); fill-rule: nonzero; opacity: 1;" transform=" matrix(1 0 0 1 0 0) " stroke-linecap="round" />
	<path d="M 72.18 56.37 c -0.2 0 -0.399 -0.021 -0.59 -0.061 c -0.19 -0.029 -0.38 -0.09 -0.56 -0.17 c -0.181 -0.07 -0.36 -0.16 -0.521 -0.27 c -0.16 -0.11 -0.32 -0.24 -0.46 -0.37 c -0.55 -0.561 -0.88 -1.34 -0.88 -2.13 s 0.33 -1.561 0.88 -2.12 c 0.14 -0.141 0.3 -0.26 0.46 -0.37 s 0.34 -0.2 0.521 -0.28 c 0.18 -0.069 0.369 -0.13 0.56 -0.17 c 0.39 -0.08 0.78 -0.08 1.17 0 c 0.19 0.04 0.38 0.101 0.56 0.17 c 0.181 0.08 0.36 0.17 0.521 0.28 c 0.17 0.11 0.32 0.229 0.46 0.37 c 0.55 0.56 0.88 1.33 0.88 2.12 s -0.33 1.569 -0.88 2.13 c -0.14 0.13 -0.3 0.26 -0.46 0.37 c -0.16 0.109 -0.34 0.199 -0.521 0.27 c -0.18 0.08 -0.369 0.141 -0.56 0.17 C 72.569 56.35 72.37 56.37 72.18 56.37 z" style="stroke: none; stroke-width: 1; stroke-dasharray: none; stroke-linecap: butt; stroke-linejoin: miter; stroke-miterlimit: 10; fill: rgb(0,0,0); fill-rule: nonzero; opacity: 1;" transform=" matrix(1 0 0 1 0 0) " stroke-linecap="round" />
	<path d="M 17.81 56.37 c -0.79 0 -1.56 -0.32 -2.12 -0.88 c -0.13 -0.131 -0.26 -0.29 -0.37 -0.45 s -0.2 -0.34 -0.28 -0.521 c -0.07 -0.18 -0.13 -0.37 -0.17 -0.56 c -0.04 -0.19 -0.06 -0.391 -0.06 -0.59 c 0 -0.19 0.02 -0.391 0.06 -0.58 c 0.04 -0.19 0.1 -0.38 0.17 -0.561 c 0.08 -0.18 0.17 -0.359 0.28 -0.52 c 0.11 -0.17 0.23 -0.32 0.37 -0.46 c 0.14 -0.141 0.29 -0.26 0.46 -0.37 c 0.16 -0.11 0.33 -0.2 0.52 -0.28 c 0.18 -0.069 0.37 -0.13 0.56 -0.17 c 0.38 -0.08 0.78 -0.08 1.17 0 c 0.19 0.04 0.38 0.101 0.56 0.17 c 0.18 0.08 0.36 0.17 0.52 0.28 c 0.16 0.11 0.32 0.229 0.45 0.37 c 0.56 0.56 0.88 1.34 0.88 2.12 c 0 0.199 -0.02 0.399 -0.06 0.59 c -0.03 0.189 -0.09 0.38 -0.17 0.56 c -0.07 0.181 -0.16 0.36 -0.27 0.521 c -0.11 0.16 -0.24 0.319 -0.38 0.45 c -0.13 0.14 -0.29 0.27 -0.45 0.38 c -0.16 0.109 -0.34 0.199 -0.52 0.27 c -0.18 0.08 -0.37 0.141 -0.56 0.17 C 18.21 56.35 18.01 56.37 17.81 56.37 z" style="stroke: none; stroke-width: 1; stroke-dasharray: none; stroke-linecap: butt; stroke-linejoin: miter; stroke-miterlimit: 10; fill: rgb(0,0,0); fill-rule: nonzero; opacity: 1;" transform=" matrix(1 0 0 1 0 0) " stroke-linecap="round" />
	<path d="M 89.931 51.704 c -1.113 -6.353 -6.153 -11.22 -12.542 -12.112 l -18.336 -2.559 c -3.934 -3.405 -9.084 -6.365 -15.319 -8.801 c -0.77 -0.301 -1.641 0.08 -1.943 0.851 c -0.302 0.771 0.08 1.642 0.851 1.943 c 5.091 1.989 9.386 4.332 12.83 6.972 c -2.177 0.719 -4.486 1.067 -6.755 1.001 l -8.929 -0.347 l -1.507 -3.936 c -0.296 -0.774 -1.165 -1.161 -1.937 -0.865 c -0.774 0.296 -1.161 1.164 -0.865 1.937 l 1.048 2.737 l -7.224 -0.28 c -0.776 -0.023 -1.554 -0.079 -2.329 -0.156 l -1.111 -3.13 c -0.277 -0.781 -1.136 -1.191 -1.915 -0.912 c -0.781 0.277 -1.189 1.134 -0.912 1.915 l 0.577 1.627 l -8.768 -1.732 c -0.037 -0.007 -0.073 -0.006 -0.109 -0.01 c -0.05 -0.006 -0.1 -0.013 -0.152 -0.014 c -0.056 -0.001 -0.111 0.004 -0.167 0.009 c -0.033 0.003 -0.065 0 -0.098 0.005 l -8.247 1.31 c -2.008 0.319 -3.642 1.87 -4.065 3.858 L 0.09 50.021 c -0.423 1.988 0.699 4.011 2.608 4.703 l 5.127 1.862 c -0.327 -1.014 -0.507 -2.092 -0.507 -3.213 c 0 -5.787 4.708 -10.496 10.496 -10.496 S 28.31 47.587 28.31 53.374 c 0 1.588 -0.365 3.088 -0.998 4.438 h 35.366 c -0.634 -1.35 -0.998 -2.851 -0.998 -4.438 c 0 -5.787 4.709 -10.496 10.496 -10.496 s 10.496 4.709 10.496 10.496 c 0 1.449 -0.295 2.83 -0.828 4.087 l 4.095 -0.445 c 1.247 -0.136 2.394 -0.788 3.147 -1.79 C 89.839 54.223 90.147 52.939 89.931 51.704 z" style="stroke: none; stroke-width: 1; stroke-dasharray: none; stroke-linecap: butt; stroke-linejoin: miter; stroke-miterlimit: 10; fill: rgb(0,0,0); fill-rule: nonzero; opacity: 1;" transform=" matrix(1 0 0 1 0 0) " stroke-linecap="round" />
</g>
</svg>