
<svg xmlns="http://www.w3.org/2000/svg" xmlns:xlink="http://www.w3.org/1999/xlink" version="1.1" width="256" height="256"  viewBox="0 0 256 256" xml:space="preserve">
<g style="stroke: none; stroke-width: 0; stroke-dasharray: none; stroke-linecap: butt; stroke-linejoin: miter; stroke-miterlimit: 10; fill: none; fill-rule: nonzero; opacity: 1;" transform="translate(1.4065934065934016 1.4065934065934016) scale(2.81 2.81)" >
	<path d="M 31.771 63.528 c -8.136 0 -16.272 -3.098 -22.466 -9.291 C 3.305 48.236 0 40.258 0 31.771 S 3.305 15.306 9.306 9.306 c 12.387 -12.387 32.543 -12.388 44.932 0 l 0 0 c 12.388 12.388 12.388 32.544 0 44.932 C 48.044 60.431 39.908 63.528 31.771 63.528 z M 31.771 4.013 c -7.112 0 -14.224 2.707 -19.638 8.121 c -10.828 10.828 -10.828 28.447 0 39.275 c 10.829 10.827 28.447 10.827 39.275 0 c 10.827 -10.828 10.827 -28.447 0 -39.275 C 45.995 6.72 38.883 4.013 31.771 4.013 z" style="stroke: none; stroke-width: 1; stroke-dasharray: none; stroke-linecap: butt; stroke-linejoin: miter; stroke-miterlimit: 10; fill: rgb(0,0,0); fill-rule: nonzero; opacity: 1;" transform=" matrix(1 0 0 1 0 0) " stroke-linecap="round" />
	<path d="M 58.357 60.357 c -0.512 0 -1.023 -0.195 -1.414 -0.586 l -5.534 -5.534 c -0.781 -0.781 -0.781 -2.047 0 -2.828 s 2.047 -0.781 2.828 0 l 5.534 5.534 c 0.781 0.781 0.781 2.047 0 2.828 C 59.381 60.162 58.869 60.357 58.357 60.357 z" style="stroke: none; stroke-width: 1; stroke-dasharray: none; stroke-linecap: butt; stroke-linejoin: miter; stroke-miterlimit: 10; fill: rgb(0,0,0); fill-rule: nonzero; opacity: 1;" transform=" matrix(1 0 0 1 0 0) " stroke-linecap="round" />
	<path d="M 84.075 89.997 c -1.518 0 -3.035 -0.577 -4.189 -1.732 L 56.943 65.322 c -1.119 -1.118 -1.736 -2.606 -1.736 -4.189 c 0 -1.582 0.617 -3.07 1.736 -4.189 s 2.607 -1.736 4.189 -1.736 c 1.583 0 3.071 0.617 4.19 1.736 l 22.941 22.942 c 2.31 2.31 2.31 6.068 0.001 8.379 c -0.001 0 -0.001 0 -0.001 0.001 C 87.109 89.42 85.592 89.997 84.075 89.997 z M 86.851 86.851 h 0.01 H 86.851 z M 61.133 59.207 c -0.514 0 -0.997 0.201 -1.361 0.564 c -0.363 0.364 -0.564 0.848 -0.564 1.361 c 0 0.515 0.2 0.997 0.564 1.36 l 22.942 22.943 c 0.749 0.749 1.97 0.751 2.723 0 c 0.75 -0.751 0.75 -1.973 0 -2.723 L 62.494 59.771 C 62.13 59.407 61.647 59.207 61.133 59.207 z" style="stroke: none; stroke-width: 1; stroke-dasharray: none; stroke-linecap: butt; stroke-linejoin: miter; stroke-miterlimit: 10; fill: rgb(0,0,0); fill-rule: nonzero; opacity: 1;" transform=" matrix(1 0 0 1 0 0) " stroke-linecap="round" />
	<circle cx="44.1" cy="37.62" r="4.5" style="stroke: none; stroke-width: 1; stroke-dasharray: none; stroke-linecap: butt; stroke-linejoin: miter; stroke-miterlimit: 10; fill: rgb(0,0,0); fill-rule: nonzero; opacity: 1;" transform="  matrix(1 0 0 1 0 0) "/>
	<circle cx="20.07" cy="37.62" r="4.5" style="stroke: none; stroke-width: 1; stroke-dasharray: none; stroke-linecap: butt; stroke-linejoin: miter; stroke-miterlimit: 10; fill: rgb(0,0,0); fill-rule: nonzero; opacity: 1;" transform="  matrix(1 0 0 1 0 0) "/>
	<path d="M 50.24 38.753 h -3.034 c -1.104 0 -2 -0.896 -2 -2 s 0.896 -2 2 -2 h 2.11 v -2.419 l -7.107 -1.441 c -1.083 -0.219 -1.782 -1.275 -1.563 -2.357 s 1.273 -1.784 2.357 -1.563 l 7.605 1.542 c 1.568 0.318 2.707 1.711 2.707 3.312 v 3.849 C 53.316 37.373 51.937 38.753 50.24 38.753 z" style="stroke: none; stroke-width: 1; stroke-dasharray: none; stroke-linecap: butt; stroke-linejoin: miter; stroke-miterlimit: 10; fill: rgb(0,0,0); fill-rule: nonzero; opacity: 1;" transform=" matrix(1 0 0 1 0 0) " stroke-linecap="round" />
	<path d="M 40.992 38.753 H 23.174 c -1.104 0 -2 -0.896 -2 -2 s 0.896 -2 2 -2 h 17.818 c 1.104 0 2 0.896 2 2 S 42.096 38.753 40.992 38.753 z" style="stroke: none; stroke-width: 1; stroke-dasharray: none; stroke-linecap: butt; stroke-linejoin: miter; stroke-miterlimit: 10; fill: rgb(0,0,0); fill-rule: nonzero; opacity: 1;" transform=" matrix(1 0 0 1 0 0) " stroke-linecap="round" />
	<path d="M 16.959 38.617 c -0.237 0 -0.478 -0.042 -0.713 -0.132 l -4.733 -1.807 c -0.775 -0.296 -1.287 -1.039 -1.287 -1.869 v -4.94 c 0 -1.534 1.1 -2.82 2.616 -3.058 l 4.156 -0.652 l 1.968 -1.9 c 1.63 -1.575 3.777 -2.442 6.043 -2.442 h 8.378 c 2.081 -0.051 4.188 0.683 5.865 1.983 l 4.58 3.551 c 0.873 0.677 1.032 1.933 0.355 2.806 c -0.676 0.873 -1.933 1.032 -2.806 0.355 l -4.58 -3.551 c -0.968 -0.75 -2.202 -1.175 -3.394 -1.145 h -8.398 c -1.224 0 -2.384 0.468 -3.265 1.319 l -2.423 2.339 c -0.296 0.286 -0.673 0.474 -1.079 0.538 l -4.016 0.63 v 2.789 l 3.447 1.315 c 1.032 0.394 1.549 1.55 1.155 2.582 C 18.524 38.126 17.765 38.617 16.959 38.617 z" style="stroke: none; stroke-width: 1; stroke-dasharray: none; stroke-linecap: butt; stroke-linejoin: miter; stroke-miterlimit: 10; fill: rgb(0,0,0); fill-rule: nonzero; opacity: 1;" transform=" matrix(1 0 0 1 0 0) " stroke-linecap="round" />
</g>
</svg>